HIERARCHY
ROOT Pelvis
{
	OFFSET 0.000000 0.941512 0.000000
	CHANNELS 6 Xposition Yposition Zposition Zrotation Yrotation Xrotation 
	JOINT Pelvis_L_Hip
	{
		OFFSET 0.000000 0.000000 0.000000
		CHANNELS 3 Zrotation Yrotation Xrotation
		JOINT L_Hip
		{
			OFFSET 0.062321 -0.080322 -0.016990
			CHANNELS 3 Zrotation Yrotation Xrotation
			JOINT L_Knee
			{
				OFFSET 0.093051 -0.381305 -0.029784
				CHANNELS 3 Zrotation Yrotation Xrotation
				JOINT L_Ankle
				{
					OFFSET -0.010371 -0.431000 -0.033614
					CHANNELS 3 Zrotation Yrotation Xrotation
					End Site #name: L_Foot
					{
						OFFSET 0.069299 -0.038670 0.119418
					}
				}
			}
		}
	}
	JOINT Pelvis_R_Hip
	{
		OFFSET 0.000000 0.000000 0.000000
		CHANNELS 3 Zrotation Yrotation Xrotation
		JOINT R_Hip
		{
			OFFSET -0.055334 -0.094904 -0.002373
			CHANNELS 3 Zrotation Yrotation Xrotation
			JOINT R_Knee
			{
				OFFSET -0.064207 -0.384370 -0.019592
				CHANNELS 3 Zrotation Yrotation Xrotation
				JOINT R_Ankle
				{
					OFFSET 0.025418 -0.419734 -0.065953
					CHANNELS 3 Zrotation Yrotation Xrotation
					End Site #name: R_Foot
					{
						OFFSET -0.057233 -0.039888 0.132134
					}
				}
			}
		}
	}
	JOINT Pelvis_Spine1
	{
		OFFSET 0.000000 0.000000 0.000000
		CHANNELS 3 Zrotation Yrotation Xrotation
		JOINT Spine1
		{
			OFFSET -0.005562 0.124093 -0.043360
			CHANNELS 3 Zrotation Yrotation Xrotation
			JOINT Spine2
			{
				OFFSET 0.012244 0.139499 0.029894
				CHANNELS 3 Zrotation Yrotation Xrotation
				JOINT Spine3
				{
					OFFSET -0.002556 0.056561 0.009225
					CHANNELS 3 Zrotation Yrotation Xrotation
					JOINT Spine3_Neck
					{
						OFFSET 0.000000 0.000000 0.000000
						CHANNELS 3 Zrotation Yrotation Xrotation
						JOINT Neck
						{
							OFFSET -0.005205 0.217920 -0.024551
							CHANNELS 3 Zrotation Yrotation Xrotation
							End Site #name: Head
							{
								OFFSET 0.002365 0.091850 0.046637
							}
						}
					}
					JOINT Spine3_L_Collar
					{
						OFFSET 0.000000 0.000000 0.000000
						CHANNELS 3 Zrotation Yrotation Xrotation
						JOINT L_Collar
						{
							OFFSET 0.072225 0.116603 -0.009480
							CHANNELS 3 Zrotation Yrotation Xrotation
							JOINT L_Shoulder
							{
								OFFSET 0.115937 -0.058643 -0.021018
								CHANNELS 3 Zrotation Yrotation Xrotation
								JOINT L_Elbow
								{
									OFFSET 0.021994 -0.254722 -0.024492
									CHANNELS 3 Zrotation Yrotation Xrotation
									End Site #name: L_Wrist
									{
										OFFSET 0.048810 -0.240214 0.103329
									}
								}
							}
						}
					}
					JOINT Spine3_R_Collar
					{
						OFFSET 0.000000 0.000000 0.000000
						CHANNELS 3 Zrotation Yrotation Xrotation
						JOINT R_Collar
						{
							OFFSET -0.073372 0.120704 -0.024611
							CHANNELS 3 Zrotation Yrotation Xrotation
							JOINT R_Shoulder
							{
								OFFSET -0.108089 -0.054969 -0.020504
								CHANNELS 3 Zrotation Yrotation Xrotation
								JOINT R_Elbow
								{
									OFFSET -0.033684 -0.260739 0.009889
									CHANNELS 3 Zrotation Yrotation Xrotation
									End Site #name: R_Wrist
									{
										OFFSET -0.067980 -0.232763 0.118463
									}
								}
							}
						}
					}
				}
			}
		}
	}
}
MOTION
Frames: 15
Frame Time: 0.041667
0.000000 0.982824 0.000000 -10.499599 -11.296317 -4.683705 0.000000 0.000000 0.000000 8.130426 0.378150 4.363212 0.235156 0.793440 -20.357361 55.149411 59.917499 92.459747 0.000000 0.000000 0.000000 3.037253 -0.516692 1.980737 -2.578675 -1.088089 -21.455029 -55.700281 -45.667230 120.912831 0.000000 0.000000 0.000000 9.111314 3.031185 -27.460389 0.978262 -0.011170 3.806954 3.423540 4.517429 25.136004 0.000000 0.000000 0.000000 1.908866 1.240075 -52.461764 0.000000 0.000000 0.000000 35.097865 -7.097209 -0.305240 -12.394523 1.706711 0.138010 -76.891135 43.051774 76.351620 0.000000 0.000000 0.000000 -35.297966 17.312279 -8.874612 5.818033 1.891976 -11.150505 41.132276 -23.475053 65.301611 
-0.001315 0.982067 0.000023 -10.116835 -10.608357 -5.242090 0.000000 0.000000 0.000000 7.627474 0.391407 4.243585 0.454049 0.753222 -19.645989 55.460688 60.010749 91.901631 0.000000 0.000000 0.000000 2.558036 -0.586312 2.552204 -2.913382 -1.105530 -21.181754 -52.088980 -45.698579 119.468045 0.000000 0.000000 0.000000 9.344625 2.869351 -26.679348 1.569192 -0.148097 3.094108 3.218319 5.978182 25.108999 0.000000 0.000000 0.000000 0.833240 1.194328 -53.347086 0.000000 0.000000 0.000000 36.729677 -9.325014 -1.928102 -10.194764 0.707991 -3.906055 -99.370218 30.998698 57.566922 0.000000 0.000000 0.000000 -35.915388 16.923631 -8.950235 0.858453 1.781663 -14.277581 34.976747 -25.233721 69.957799 
-0.002362 0.981540 -0.000301 -9.900215 -10.162727 -6.389010 0.000000 0.000000 0.000000 7.636843 0.546697 5.050015 -0.416465 0.651743 -19.515486 54.675326 59.996083 90.530140 0.000000 0.000000 0.000000 2.304353 -0.826262 4.031943 -3.008102 -1.141522 -21.482925 -53.698905 -46.204058 118.971053 0.000000 0.000000 0.000000 9.793546 2.510180 -24.773546 2.232799 -0.323092 1.043934 3.433211 7.173402 26.295461 0.000000 0.000000 0.000000 -0.954318 1.158560 -55.648783 0.000000 0.000000 0.000000 37.420136 -10.937426 -3.154477 -8.094787 0.080506 -6.810167 -107.327063 22.390247 50.673168 0.000000 0.000000 0.000000 -38.755324 19.207994 -12.199430 -4.471543 0.811385 -10.632929 27.681373 -22.787600 67.930866 
-0.002641 0.981297 0.000577 -9.466266 -9.358055 -7.028688 0.000000 0.000000 0.000000 7.460691 0.569104 5.123913 -1.289369 0.538972 -19.093566 56.853049 60.099226 92.433598 0.000000 0.000000 0.000000 1.684692 -0.941958 5.000460 -3.151015 -1.169056 -21.482847 -52.227697 -46.905460 116.158484 0.000000 0.000000 0.000000 9.520318 2.290674 -23.744313 3.151220 -0.490312 0.040099 3.765648 8.874959 25.722049 0.000000 0.000000 0.000000 -1.175677 0.973165 -56.458832 0.000000 0.000000 0.000000 40.120932 -12.911036 -4.550966 -6.619517 -0.546852 -10.673676 -110.870376 14.953033 46.545994 0.000000 0.000000 0.000000 -41.449357 18.818090 -12.674528 -9.245665 0.365473 -12.470419 17.647665 -20.869695 68.043434 
-0.003177 0.981242 0.000621 -9.188885 -8.768395 -7.048026 0.000000 0.000000 0.000000 7.157171 0.515836 4.749871 -1.280161 0.516908 -18.819094 55.438865 60.061005 90.569021 0.000000 0.000000 0.000000 1.296531 -0.958271 5.288273 -3.166110 -1.213949 -21.946602 -51.209427 -46.696670 116.665700 0.000000 0.000000 0.000000 9.403100 2.194191 -23.322005 3.374126 -0.529903 -0.241745 3.405998 9.678812 24.771729 0.000000 0.000000 0.000000 0.080332 0.871980 -56.451039 0.000000 0.000000 0.000000 41.833807 -12.601712 -3.752431 -5.498365 -0.988068 -13.921695 -111.392531 13.867667 45.996294 0.000000 0.000000 0.000000 -42.895743 19.792187 -14.397409 -13.845311 -0.223156 -10.799234 18.388066 -22.394287 71.190062 
-0.003727 0.981357 0.002506 -8.999017 -8.200781 -6.903099 0.000000 0.000000 0.000000 7.192598 0.439959 4.427436 -2.119335 0.438736 -18.876349 56.804326 60.212439 91.174527 0.000000 0.000000 0.000000 1.050232 -0.967183 5.458493 -3.357600 -1.247598 -22.113741 -53.706918 -46.838373 117.981355 0.000000 0.000000 0.000000 9.402231 2.249801 -23.702737 3.254129 -0.523187 -0.968689 3.933588 10.677734 25.641921 0.000000 0.000000 0.000000 0.688082 0.733251 -58.973303 0.000000 0.000000 0.000000 43.730501 -12.711258 -3.351776 -5.986148 -1.207454 -16.000605 -112.061998 11.334758 44.758022 0.000000 0.000000 0.000000 -45.913811 20.036180 -15.733300 -16.169473 -0.442991 -8.098047 14.180169 -19.777445 66.916680 
-0.003988 0.981832 0.003853 -8.916297 -7.663081 -6.513266 0.000000 0.000000 0.000000 7.156679 0.310887 3.798473 -2.078796 0.419113 -18.325618 55.295722 60.107384 89.669228 0.000000 0.000000 0.000000 1.075774 -0.949653 5.316530 -3.969279 -1.286472 -22.116124 -49.910648 -46.863936 115.845240 0.000000 0.000000 0.000000 9.398311 2.383276 -24.521521 3.821725 -0.603352 -0.441174 3.675470 11.527529 24.599468 0.000000 0.000000 0.000000 1.201941 0.631805 -58.216589 0.000000 0.000000 0.000000 44.610967 -12.595601 -2.726374 -4.221641 -1.446149 -18.329918 -112.368168 11.121941 44.575850 0.000000 0.000000 0.000000 -48.476146 20.096720 -16.675232 -18.712567 -0.686135 -6.995885 9.407180 -19.174771 67.870091 
-0.002654 0.982786 0.007437 -8.527492 -6.495989 -6.112113 0.000000 0.000000 0.000000 6.826143 0.182477 3.090501 -3.066435 0.318422 -18.361021 55.903486 60.187608 89.567626 0.000000 0.000000 0.000000 0.439619 -0.939739 5.575013 -4.359622 -1.383988 -22.763287 -52.090405 -46.629542 118.873301 0.000000 0.000000 0.000000 9.268629 2.560089 -25.704123 3.880689 -0.616721 -0.465016 3.494296 12.975401 24.032707 0.000000 0.000000 0.000000 2.882885 0.428812 -59.032329 0.000000 0.000000 0.000000 47.034120 -12.276396 -1.316222 -3.038007 -1.802026 -22.865873 -112.815690 9.958845 43.940774 0.000000 0.000000 0.000000 -52.249718 19.358736 -17.247583 -24.689556 -1.211630 -5.763794 5.016969 -18.358874 68.398349 
-0.002871 0.982585 0.009709 -8.176689 -5.281443 -5.851797 0.000000 0.000000 0.000000 6.954622 0.037088 2.483089 -4.444853 0.183073 -17.870819 52.258917 60.037247 84.596351 0.000000 0.000000 0.000000 0.158554 -0.966736 5.861474 -5.570618 -1.484794 -22.900864 -43.949281 -45.306421 120.497388 0.000000 0.000000 0.000000 9.596064 2.600763 -26.087557 3.413407 -0.555671 -0.933743 4.694128 14.162054 24.461507 0.000000 0.000000 0.000000 -1.227733 -0.045983 -61.138777 0.000000 0.000000 0.000000 46.699803 -11.909354 -0.083419 -0.467309 -1.844114 -26.512569 -111.920453 7.279109 42.513144 0.000000 0.000000 0.000000 -53.666673 19.140935 -18.123148 -30.684931 -1.124384 -1.044760 10.611671 -19.190687 68.645142 
-0.000793 0.984780 0.014848 -8.344103 -3.551722 -5.311567 0.000000 0.000000 0.000000 7.401295 -0.207782 1.522115 -5.553125 0.058507 -17.465305 50.259197 59.823922 82.010525 0.000000 0.000000 0.000000 0.162907 -1.033541 6.185863 -6.173236 -1.650659 -23.731919 -46.244741 -45.324101 123.528532 0.000000 0.000000 0.000000 11.238995 2.898436 -27.696663 2.235770 -0.338723 0.867560 5.792332 15.340029 23.935178 0.000000 0.000000 0.000000 -8.057147 -1.089114 -63.109434 0.000000 0.000000 0.000000 44.234459 -12.718184 -0.426256 2.151061 -1.662937 -28.388681 -110.499535 4.355161 40.995250 0.000000 0.000000 0.000000 -56.824760 18.262954 -18.587400 -34.785379 -0.479333 4.504000 10.341678 -17.644720 65.669736 
0.006284 0.983196 0.018214 -7.823508 -2.759860 -5.437758 0.000000 0.000000 0.000000 6.913630 -0.104281 1.931467 -6.317044 -0.028732 -17.735238 45.268810 59.241843 75.783551 0.000000 0.000000 0.000000 -1.551061 -0.929120 6.595596 -5.038125 -1.591912 -23.511526 -47.023449 -45.815677 122.279117 0.000000 0.000000 0.000000 12.030099 3.142160 -28.903340 1.079736 -0.118467 1.592800 6.630739 15.848991 23.578686 0.000000 0.000000 0.000000 -8.980423 -1.683881 -65.011389 0.000000 0.000000 0.000000 43.634734 -12.803523 -0.187287 2.524722 -1.762188 -32.817023 -108.220917 5.733041 41.673199 0.000000 0.000000 0.000000 -59.364668 17.908466 -19.128898 -33.013485 -0.671494 3.925118 -0.330384 -16.872955 70.029411 
0.009966 0.982807 0.021226 -7.492133 -2.508942 -5.927227 0.000000 0.000000 0.000000 6.858966 0.041096 2.683816 -7.991096 -0.184450 -18.120138 49.451071 60.116213 77.757109 0.000000 0.000000 0.000000 -2.115554 -0.965877 7.224746 -5.241397 -1.596136 -23.381742 -50.636270 -46.152747 122.893720 0.000000 0.000000 0.000000 12.634634 3.216641 -29.128115 1.040480 -0.115280 1.493937 5.769518 16.068405 24.313117 0.000000 0.000000 0.000000 -8.765273 -2.033068 -66.883693 0.000000 0.000000 0.000000 44.425096 -12.973470 -0.170643 1.730148 -1.937085 -35.045219 -106.097548 7.206801 42.380734 0.000000 0.000000 0.000000 -55.772406 18.787899 -19.810841 -37.284488 -0.000468 6.960155 -1.677511 -16.271231 67.018615 
0.020646 0.978528 0.025288 -7.424841 -3.076497 -6.809050 0.000000 0.000000 0.000000 6.562462 0.389410 4.302972 -8.215287 -0.205638 -18.506075 48.648960 59.883252 78.066036 0.000000 0.000000 0.000000 -2.679228 -1.025972 8.113947 -5.663362 -1.556990 -22.961658 -42.223924 -45.431747 120.809732 0.000000 0.000000 0.000000 13.064846 3.394804 -29.677030 1.578964 -0.164442 2.920920 4.672503 15.468704 21.071887 0.000000 0.000000 0.000000 -5.334089 -0.746689 -61.274458 0.000000 0.000000 0.000000 46.192584 -15.049057 -2.873715 -0.791247 -2.470600 -35.449796 -105.566638 6.202981 42.276918 0.000000 0.000000 0.000000 -54.082630 19.546501 -19.788528 -30.179506 -0.705149 2.953712 -19.987779 -14.006651 71.486123 
0.034710 0.971853 0.027707 -6.262961 -5.076168 -8.264263 0.000000 0.000000 0.000000 5.037640 1.197234 7.261633 -8.620768 -0.248611 -20.465863 50.553195 60.333006 79.038772 0.000000 0.000000 0.000000 -5.050496 -0.823328 8.933593 -4.031005 -1.424830 -23.053826 -51.143910 -46.481417 119.689838 0.000000 0.000000 0.000000 12.098334 3.380188 -29.304088 3.445954 -0.517568 2.281852 2.164330 13.861456 20.158055 0.000000 0.000000 0.000000 1.879866 0.272960 -55.428868 0.000000 0.000000 0.000000 49.370565 -16.519373 -5.885271 -5.515832 -3.452429 -36.085783 -105.845468 6.752738 43.063680 0.000000 0.000000 0.000000 -48.288293 19.489345 -17.034293 -20.876008 -0.869029 -4.435527 -35.874786 -11.752898 71.360514 
0.044420 0.969894 0.029566 -5.752487 -6.512439 -8.945000 0.000000 0.000000 0.000000 4.504698 1.587354 8.624351 -9.982761 -0.315156 -20.565115 52.042844 60.935676 77.855905 0.000000 0.000000 0.000000 -5.580927 -0.795686 9.499552 -4.673885 -1.475781 -23.860098 -53.467110 -46.102817 121.367265 0.000000 0.000000 0.000000 12.377722 3.525438 -29.500058 2.534290 -0.346798 2.481730 3.319298 12.109191 21.383349 0.000000 0.000000 0.000000 -2.523325 0.437399 -57.156452 0.000000 0.000000 0.000000 48.167460 -19.642826 -11.253017 -8.047263 -3.747305 -34.029540 -103.538973 6.255804 42.998004 0.000000 0.000000 0.000000 -41.066100 16.832587 -11.651277 -20.811776 -1.172305 -11.326816 -33.932241 -12.288979 77.038174 
